<svg xmlns="http://www.w3.org/2000/svg" viewBox="0 0 186.06 186.06"><defs><style>.cls-1{fill:#e6edb7;}.cls-2{fill:#502c09;opacity:0.3;}.cls-3{fill:#fff;}.cls-4{fill:#edede8;}.cls-5{fill:#b6dbcf;}.cls-6{fill:#fefdef;}.cls-7{fill:#6fadad;}.cls-8{fill:#519096;}.cls-9{fill:#609da0;}.cls-10{fill:#0a2538;}.cls-11{fill:#fc5959;}.cls-12{fill:#cf4232;}</style></defs><g id="Layer_2" data-name="Layer 2"><g id="EchoPlus_Robot" data-name="EchoPlus Robot"><rect class="cls-1" width="186.06" height="186.06"/><ellipse class="cls-2" cx="93.03" cy="164.4" rx="38.09" ry="5.23"/><path class="cls-3" d="M118,91.44l-.24.45a1.09,1.09,0,0,0-.08.15l-.27.5v0c-6.23,11-14.81,16.52-24.41,16.79l-.56,0h0a25,25,0,0,1-13.3-4.65A37.47,37.47,0,0,1,68.05,91.48a.08.08,0,0,0,0,0Z"/><path class="cls-4" d="M140.8,66.44c-3.78.28-11.53,2.19-16.52,12.5l-1.65,3.42-.72,1.48,0,0-.66,1.35c-.44.88-.9,1.8-1.38,2.74l-.26.51-.54,1-.12.23c-.24.46-.48.92-.73,1.38l-.17.32-.24.45a1.09,1.09,0,0,0-.08.15q-.15.24-.27.48c-6.23,11-14.81,16.52-24.41,16.79l-.56,0h0a25,25,0,0,1-13.3-4.65A37.47,37.47,0,0,1,68.05,91.48a.08.08,0,0,0,0,0l-.17-.32-.62-1.18a2.79,2.79,0,0,1-.18-.34l-.59-1.13c-1.85-3.6-3.43-6.92-4.69-9.53-5-10.31-12.74-12.22-16.52-12.5Z"/><path class="cls-5" d="M93,16.44h0a25,25,0,0,1,25,25v25a0,0,0,0,1,0,0H68a0,0,0,0,1,0,0v-25a25,25,0,0,1,25-25Z"/><path class="cls-5" d="M93,116.44h0a25,25,0,0,1,25,25v25a0,0,0,0,1,0,0H68a0,0,0,0,1,0,0v-25A25,25,0,0,1,93,116.44Z" transform="translate(186.06 282.87) rotate(180)"/><path class="cls-6" d="M168,91.44a25,25,0,0,1-25,25H93l-.57,0v-7.11l.57,0c9.6-.27,18.18-5.84,24.41-16.79v0l.27-.5a1.09,1.09,0,0,1,.08-.15l.24-.45.17-.32c.25-.46.49-.92.73-1.38l.12-.23c.28-.52.54-1,.8-1.55.48-.94.94-1.86,1.38-2.74q.34-.69.66-1.35l0,0,.72-1.48,1.65-3.42c5-10.31,12.74-12.22,16.52-12.5a11.86,11.86,0,0,1,2.23,0,25,25,0,0,1,25,25Z"/><path class="cls-3" d="M117.71,92l-.27.5v0Z"/><path class="cls-6" d="M93,116.44H43a25,25,0,0,1-9.73-2c-.75-.32-1.48-.67-2.19-1.06a25.11,25.11,0,0,1-10.06-10.06c-.39-.71-.74-1.44-1.06-2.19a25.13,25.13,0,0,1,0-19.46c.32-.75.67-1.48,1.06-2.19A25,25,0,0,1,31.11,69.46c.71-.39,1.44-.74,2.19-1.06a25,25,0,0,1,9.73-2h2.23c3.78.28,11.53,2.19,16.52,12.5,1.26,2.61,2.84,5.93,4.69,9.53l.59,1.13a2.79,2.79,0,0,0,.18.34l.62,1.18.17.32a.08.08,0,0,1,0,0,37.47,37.47,0,0,0,11.11,13.16,25,25,0,0,0,13.3,4.65v7.11Z"/><path class="cls-6" d="M45.26,66.44H43A11.86,11.86,0,0,1,45.26,66.44Z"/><path class="cls-7" d="M145.72,49.4a4.75,4.75,0,1,1-6-5.19h.06A6.7,6.7,0,0,1,145.72,49.4Z"/><path class="cls-8" d="M145.88,50.43a6.27,6.27,0,0,1,0,1c0,.12,0,.24,0,.35a.68.68,0,0,1,0,.14c0,.13,0,.25-.07.37v0a6.74,6.74,0,0,1-.33,1.08c-.08.2-.17.39-.26.57s-.17.31-.26.46a.61.61,0,0,1-.07.1h0c-.11.17-.23.34-.35.5l-.05.07a3.92,3.92,0,0,1-.34.37.75.75,0,0,1-.12.14l-.06.06-.19.17a1.07,1.07,0,0,1-.16.14c-.12.11-.25.21-.38.31l0,0a4.15,4.15,0,0,1-.43.3l0,0-.26.14-.08,0-.27.14-.18.08-.36.14-.15.06a2.78,2.78,0,0,1-.38.12h-.08l-.1,0-.3.07-.12,0h-.09a4.91,4.91,0,0,1-.67.08h-.18a6,6,0,0,1-.74,0l-.58-.07a8.39,8.39,0,0,1-.84-.18l-.24-.07-1,3.4-.31,1c-.38,1.48-1.15,4.78-1.15,4.78H124.28c3.29-3.63,6.59-7.43,9.88-11.12-.12-.14-.23-.27-.34-.42a.21.21,0,0,0,0-.06,4.52,4.52,0,0,1-.34-.51c-.1-.17-.2-.34-.28-.51a6.07,6.07,0,0,1-.29-.7,4.42,4.42,0,0,1-.15-.48l0-.08c0-.13-.06-.25-.08-.38a6.42,6.42,0,0,1-.12-.88,5.42,5.42,0,0,1,0-1,4.18,4.18,0,0,1,.06-.51,0,0,0,0,1,0,0c0-.08,0-.15.05-.23a.9.9,0,0,1,0-.16.22.22,0,0,1,0-.08l0-.1.06-.19.06-.19c0-.11.07-.22.11-.33a2.88,2.88,0,0,1,.13-.31.46.46,0,0,1,.08-.19,5.18,5.18,0,0,1,.31-.57q.19-.3.42-.6l0-.07a3.15,3.15,0,0,1,.24-.3l.21-.22,0-.06a6.69,6.69,0,0,1,3.66-1.9,5.05,5.05,0,0,1,.68-.08h.37c.21,0,.42,0,.62,0a4.75,4.75,0,1,0,6,5.19A5.82,5.82,0,0,1,145.88,50.43Z"/><path class="cls-7" d="M136.51,59.08l-1,3.25c-1.61-.63-3.31-1.07-4.83-1.6C132.88,58.76,134.2,57.29,136.51,59.08Z"/><path class="cls-9" d="M145.88,50.43a6.27,6.27,0,0,1,0,1c0,.12,0,.24,0,.35a.68.68,0,0,1,0,.14c0,.13,0,.25-.07.37v0a6.74,6.74,0,0,1-.33,1.08c-.08.2-.17.39-.26.57s-.17.31-.26.46a.61.61,0,0,1-.07.1h0a6.13,6.13,0,0,1-.74.94l-.37.37a1.07,1.07,0,0,1-.16.14c-.12.11-.25.21-.38.31l0,0a6.64,6.64,0,0,1-1.62.87,6,6,0,0,1-.6.19l-.11,0-.51.11h0l-.59.07a6.57,6.57,0,0,1-1.09,0,6.94,6.94,0,0,1-1.3-.24,6.72,6.72,0,0,1-3.46-2.4.21.21,0,0,0,0-.06,4.52,4.52,0,0,1-.34-.51c-.1-.17-.2-.34-.28-.51a6.07,6.07,0,0,1-.29-.7,4.42,4.42,0,0,1-.15-.48l0-.08c0-.13-.06-.25-.08-.38a6.42,6.42,0,0,1-.12-.88,5.42,5.42,0,0,1,0-1,4.18,4.18,0,0,1,.06-.51,0,0,0,0,1,0,0c0-.13.05-.26.08-.39a1.16,1.16,0,0,1,0-.18l.06-.19.06-.19c0-.11.07-.22.11-.33a2.88,2.88,0,0,1,.13-.31.46.46,0,0,1,.08-.19,5.18,5.18,0,0,1,.31-.57,7.26,7.26,0,0,1,.66-.91l.05-.06,0-.05a6.63,6.63,0,0,1,4.55-2.23,7.31,7.31,0,0,1,1.05,0l-.06,0a4.75,4.75,0,1,0,6,5.19A5.82,5.82,0,0,1,145.88,50.43Z"/><path class="cls-8" d="M135,45.65A6.63,6.63,0,0,0,145,54.38,6.71,6.71,0,1,1,135,45.65Z"/><path class="cls-7" d="M41.33,49.4a4.75,4.75,0,1,0,6-5.19h-.06A6.7,6.7,0,0,0,41.33,49.4Z"/><path class="cls-8" d="M41.17,50.43a6.27,6.27,0,0,0,0,1c0,.12,0,.24,0,.35a.68.68,0,0,0,0,.14c0,.13,0,.25.07.37v0a6.74,6.74,0,0,0,.33,1.08c.08.2.17.39.26.57s.17.31.26.46a.61.61,0,0,0,.07.1h0c.11.17.23.34.35.5l.05.07a3.92,3.92,0,0,0,.34.37.75.75,0,0,0,.12.14l.06.06.19.17a1.07,1.07,0,0,0,.16.14c.12.11.25.21.38.31l0,0a4.15,4.15,0,0,0,.43.3l0,0,.26.14.09,0,.26.14.18.08.36.14.15.06a2.78,2.78,0,0,0,.38.12h.08l.1,0,.3.07.12,0h.09a4.91,4.91,0,0,0,.67.08h.19a6.06,6.06,0,0,0,.74,0l.57-.07a7.34,7.34,0,0,0,.84-.18l.24-.07,1,3.4.31,1c.38,1.48,1.15,4.78,1.15,4.78H62.77c-3.29-3.63-6.59-7.43-9.88-11.12.12-.14.23-.27.34-.42a.21.21,0,0,1,0-.06,4.52,4.52,0,0,0,.34-.51c.1-.17.2-.34.28-.51a6.07,6.07,0,0,0,.29-.7,4.42,4.42,0,0,0,.15-.48l0-.08c0-.13.06-.25.08-.38a6.42,6.42,0,0,0,.12-.88,5.42,5.42,0,0,0,0-1,4.18,4.18,0,0,0-.06-.51,0,0,0,0,0,0,0c0-.08,0-.15,0-.23a.9.9,0,0,0,0-.16.22.22,0,0,0,0-.08l0-.1L54.3,49l-.06-.19c0-.11-.07-.22-.11-.33a2.88,2.88,0,0,0-.13-.31.46.46,0,0,0-.08-.19,5.18,5.18,0,0,0-.31-.57q-.2-.3-.42-.6l0-.07a3.15,3.15,0,0,0-.24-.3l-.21-.22,0-.06A6.69,6.69,0,0,0,49,44.27a5.05,5.05,0,0,0-.68-.08h-.37c-.21,0-.42,0-.62,0a4.75,4.75,0,1,1-6,5.19A5.82,5.82,0,0,0,41.17,50.43Z"/><path class="cls-7" d="M50.54,59.08l1,3.25c1.61-.63,3.31-1.07,4.83-1.6C54.18,58.76,52.86,57.29,50.54,59.08Z"/><path class="cls-9" d="M41.17,50.43a6.27,6.27,0,0,0,0,1c0,.12,0,.24,0,.35a.68.68,0,0,0,0,.14c0,.13,0,.25.07.37v0a6.74,6.74,0,0,0,.33,1.08c.08.2.17.39.26.57s.17.31.26.46a.61.61,0,0,0,.07.1h0a6.13,6.13,0,0,0,.74.94l.37.37a1.07,1.07,0,0,0,.16.14c.12.11.25.21.38.31l0,0a6.64,6.64,0,0,0,1.62.87,6,6,0,0,0,.6.19l.11,0,.51.11h0l.59.07a6.57,6.57,0,0,0,1.09,0,6.94,6.94,0,0,0,1.3-.24,6.72,6.72,0,0,0,3.46-2.4.21.21,0,0,1,0-.06,4.52,4.52,0,0,0,.34-.51c.1-.17.2-.34.28-.51a6.07,6.07,0,0,0,.29-.7,4.42,4.42,0,0,0,.15-.48l0-.08c0-.13.06-.25.08-.38a6.42,6.42,0,0,0,.12-.88,5.42,5.42,0,0,0,0-1,4.18,4.18,0,0,0-.06-.51,0,0,0,0,0,0,0c0-.13,0-.26-.08-.39a1.16,1.16,0,0,0,0-.18L54.3,49l-.06-.19c0-.11-.07-.22-.11-.33a2.88,2.88,0,0,0-.13-.31.46.46,0,0,0-.08-.19,5.18,5.18,0,0,0-.31-.57,7.18,7.18,0,0,0-.65-.91l-.06-.06,0-.05a6.66,6.66,0,0,0-4.56-2.23,7.31,7.31,0,0,0-1,0l.06,0a4.75,4.75,0,1,1-6,5.19A5.82,5.82,0,0,0,41.17,50.43Z"/><path class="cls-8" d="M52,45.65a6.63,6.63,0,0,1-9.93,8.73A6.71,6.71,0,1,0,52,45.65Z"/><path class="cls-10" d="M112.09,79.1a5.42,5.42,0,1,1-5.41-5.41A5.41,5.41,0,0,1,112.09,79.1Z"/><path class="cls-3" d="M106.77,77.52a1.68,1.68,0,1,1-1.67-1.68A1.68,1.68,0,0,1,106.77,77.52Z"/><path class="cls-3" d="M109.56,81.08a.91.91,0,0,1-1.81,0,.91.91,0,1,1,1.81,0Z"/><path class="cls-11" d="M109.29,87.28c0,.76-1.16,1.38-2.6,1.38s-2.6-.62-2.6-1.38,1.16-1.37,2.6-1.37S109.29,86.52,109.29,87.28Z"/><path class="cls-11" d="M75.85,87.28c0,.76,1.16,1.38,2.6,1.38s2.6-.62,2.6-1.38-1.17-1.37-2.6-1.37S75.85,86.52,75.85,87.28Z"/><path class="cls-10" d="M73.63,83.88a.81.81,0,0,1-.72-.45.79.79,0,0,1,.38-1.06l8.14-3.9-8.14-3.9A.79.79,0,1,1,74,73.14l9.64,4.62a.79.79,0,0,1,.45.71.8.8,0,0,1-.45.71L74,83.8A.84.84,0,0,1,73.63,83.88Z"/><path class="cls-10" d="M83.26,79.26H73.63a.79.79,0,0,1,0-1.58h9.63a.79.79,0,1,1,0,1.58Z"/><path class="cls-10" d="M73.63,83.88a.81.81,0,0,1-.72-.45.79.79,0,0,1,.38-1.06l8.14-3.9-8.14-3.9A.79.79,0,1,1,74,73.14l9.64,4.62a.79.79,0,0,1,.45.71.8.8,0,0,1-.45.71L74,83.8A.84.84,0,0,1,73.63,83.88Z"/><path class="cls-10" d="M83.26,79.26H73.63a.79.79,0,0,1,0-1.58h9.63a.79.79,0,1,1,0,1.58Z"/><path class="cls-10" d="M92.46,89.66c-2.82,0-5.29-1.35-6.14-3.36a.59.59,0,1,1,1.09-.47c.66,1.56,2.74,2.64,5,2.64s4.39-1.08,5.05-2.64a.6.6,0,0,1,1.1.47C97.75,88.31,95.29,89.66,92.46,89.66Z"/><path class="cls-12" d="M95.79,91.64a1.65,1.65,0,0,1-2-.92l-.63-1.56A6.58,6.58,0,0,0,96.29,88l.4,1.6A1.64,1.64,0,0,1,95.79,91.64Z"/><path class="cls-10" d="M95.3,92.13a2.12,2.12,0,0,1-1.89-1.27l-.62-1.56a.38.38,0,0,1,.3-.53,6.24,6.24,0,0,0,3-1,.4.4,0,0,1,.37-.06.39.39,0,0,1,.25.28l.4,1.59A2,2,0,0,1,95.92,92,1.67,1.67,0,0,1,95.3,92.13Zm-1.59-2.67.44,1.11a1.2,1.2,0,0,0,.61.63,1.12,1.12,0,0,0,.89.07,1.24,1.24,0,0,0,.67-1.5L96,88.68A7,7,0,0,1,93.71,89.46Z"/></g></g></svg>